# xmcd CD database file
#
# Track frame offsets:
#	150
#	16357
#	28607
#	45915
#	65516
#	83317
#	97117
#	111307
#	130905
#	146970
#	165850
#	182805
#
# Disc length: 2643 seconds
#
# Revision: 1
# Processed by: cddbd v1.5.1PL2 Copyright (c) Steve Scherf et al.
# Submitted via: CDex 1.51
#
DISCID=970a510c
DTITLE=KREVA - 愛・自分博
DYEAR=2006
DGENRE=Hip Hop
TTITLE0=H.A.P.P.Y
TTITLE1=国民的行事
TTITLE2=It's for you
TTITLE3=いいと思う
TTITLE4=island life feat.SONOMI
TTITLE5=イッサイガッサイ
TTITLE6=涙とまれよ feat.SONOMI
TTITLE7=江戸川ロックオン feat.CUEZERO,WADA
TTITLE8=暗闇のナビゲイラ
TTITLE9=トリートメント feat.DABO.CUEZERO
TTITLE10=スタート
TTITLE11=My Life
EXTD=YEAR: 2006
EXTT0=
EXTT1=
EXTT2=
EXTT3=
EXTT4=
EXTT5=
EXTT6=
EXTT7=
EXTT8=
EXTT9=
EXTT10=
EXTT11=
PLAYORDER=
